Coordinates
version=1
nRows=4
nColumns=124
inDegrees=yes

Units are S.I. units (second, meters, Newtons, ...)
If the header above contains a line with 'inDegrees', this indicates whether rotational values are in degrees (yes) or radians (no).

endheader 
time	pelvis_tilt	pelvis_list	pelvis_rotation	pelvis_tx	pelvis_ty	pelvis_tz	hip_flexion_l	hip_adduction_l	hip_rotation_l	hip_flexion_r	hip_adduction_r	hip_rotation_r	knee_angle_l	knee_angle_r	ankle_angle_l	ankle_angle_r	subtalar_angle_l	subtalar_angle_r	mtp_angle_l	mtp_angle_r	lumbar_extension	lumbar_bending	lumbar_rotation	arm_flex_l	arm_add_l	arm_rot_l	arm_flex_r	arm_add_r	arm_rot_r	elbow_flex_l	elbow_flex_r	glut_med1_l/activation	glut_med2_l/activation	glut_med3_l/activation	glut_min1_l/activation	glut_min2_l/activation	glut_min3_l/activation	semimem_l/activation	semiten_l/activation	bifemlh_l/activation	bifemsh_l/activation	sar_l/activation	add_long_l/activation	add_brev_l/activation	add_mag1_l/activation	add_mag2_l/activation	add_mag3_l/activation	tfl_l/activation	pect_l/activation	grac_l/activation	glut_max1_l/activation	glut_max2_l/activation	glut_max3_l/activation	iliacus_l/activation	psoas_l/activation	quad_fem_l/activation	gem_l/activation	peri_l/activation	rect_fem_l/activation	vas_med_l/activation	vas_int_l/activation	vas_lat_l/activation	med_gas_l/activation	lat_gas_l/activation	soleus_l/activation	tib_post_l/activation	flex_dig_l/activation	flex_hal_l/activation	tib_ant_l/activation	per_brev_l/activation	per_long_l/activation	per_tert_l/activation	ext_dig_l/activation	ext_hal_l/activation	ercspn_l/activation	intobl_l/activation	extobl_l/activation	glut_med1_r/activation	glut_med2_r/activation	glut_med3_r/activation	glut_min1_r/activation	glut_min2_r/activation	glut_min3_r/activation	semimem_r/activation	semiten_r/activation	bifemlh_r/activation	bifemsh_r/activation	sar_r/activation	add_long_r/activation	add_brev_r/activation	add_mag1_r/activation	add_mag2_r/activation	add_mag3_r/activation	tfl_r/activation	pect_r/activation	grac_r/activation	glut_max1_r/activation	glut_max2_r/activation	glut_max3_r/activation	iliacus_r/activation	psoas_r/activation	quad_fem_r/activation	gem_r/activation	peri_r/activation	rect_fem_r/activation	vas_med_r/activation	vas_int_r/activation	vas_lat_r/activation	med_gas_r/activation	lat_gas_r/activation	soleus_r/activation	tib_post_r/activation	flex_dig_r/activation	flex_hal_r/activation	tib_ant_r/activation	per_brev_r/activation	per_long_r/activation	per_tert_r/activation	ext_dig_r/activation	ext_hal_r/activation	ercspn_r/activation	intobl_r/activation	extobl_r/activation	
          0.56162322	         -8.25529695	          4.97939817	         -7.83718593	          0.74695889	          0.89079032	          0.00646065	         35.16960067	          3.85281118	         -3.93468508	        -12.09875322	         -3.72861777	          6.33414646	        -11.95074519	        -12.54701741	         12.84161292	          4.19791944	         -7.38752605	          0.97309500	          0.27140575	         35.73332818	          2.98432940	         -1.74508396	          1.88413230	         -8.27445966	        -13.58126509	         11.91215138	         -1.04063728	        -13.49860049	         18.29933610	          0.26793201	         90.10356131	          0.21846630	          0.05000021	          0.61964388	          0.05000052	          0.05000041	          0.49297445	          0.22038383	          0.05312722	          0.09557858	          0.09286674	          0.06872040	          0.06872155	          0.13970681	          0.13078296	          0.11012384	          0.16378909	          0.05000068	          0.06871920	          0.07565316	          0.05000032	          0.05000051	          0.17706679	          0.06872072	          0.06870208	          0.12955130	          0.12986446	          0.38712633	          0.05000020	          0.05000082	          0.05000103	          0.05000067	          0.05168294	          0.06872062	          0.05696427	          0.06872047	          0.05000119	          0.05000163	          0.54432960	          0.33186214	          0.20078655	          0.21968998	          0.75637579	          0.51707486	          0.11926830	          0.08722460	          0.06872079	          0.31189260	          0.09444843	          0.08202996	          0.13534427	          0.12763737	          0.09445362	          0.05000053	          0.05000044	          0.05000060	          0.07698743	          0.06872350	          0.21795008	          0.14409415	          0.06872431	          0.09347420	          0.16864359	          0.36720598	          0.06873576	          0.05000140	          0.05000459	          0.05000308	          0.05000252	          0.23236277	          0.52539802	          0.06420053	          0.05000324	          0.08492598	          0.05844762	          0.05004866	          0.05715153	          0.05626955	          0.24037762	          0.35265007	          0.24908106	          0.43403090	          0.46773062	          0.44139721	          0.05000008	          0.05000011	          0.05000007	          0.05000017	          0.05000004	          0.05000035	          0.06887712	          0.05000003	          0.05000004	
          0.58408815	         -8.21956581	          4.97372851	         -8.39362075	          0.78290256	          0.88776581	          0.00584156	         34.13009436	          4.15198021	         -3.29451791	        -11.10458239	         -3.99984778	          5.22634973	        -14.08072170	        -18.37934125	         11.17534637	          2.82098737	         -8.10163911	          1.92664032	          0.25545058	         36.84801060	          3.26260180	         -2.00005005	          1.93427900	        -10.32786110	        -13.63301302	         10.85742033	         -1.95007981	        -13.53013409	         18.80417598	          0.10192781	         94.38129331	          0.32687297	          0.40311698	          0.55344889	          0.16248720	          0.32196240	          0.35867971	          0.16034733	          0.08674344	          0.06954137	          0.06756831	          0.05000025	          0.05000068	          0.10164826	          0.14934468	          0.19824854	          0.18861521	          0.05000045	          0.05000161	          0.09214099	          0.30062040	          0.23946015	          0.23806297	          0.05000006	          0.05000005	          0.28402543	          0.09448740	          0.28166633	          0.05000008	          0.10547204	          0.12486375	          0.13321471	          0.05000001	          0.05000004	          0.05000000	          0.05000001	          0.05000010	          0.05000010	          0.79317943	          0.43209295	          0.23009409	          0.68758321	          0.88319783	          0.37621863	          0.13953015	          0.08015658	          0.05000006	          0.22692756	          0.06871903	          0.05968355	          0.29327720	          0.09286691	          0.06872282	          0.06878433	          0.05000033	          0.05000022	          0.05601470	          0.05000230	          0.30366877	          0.34672854	          0.05000308	          0.11225971	          0.12270231	          0.46737576	          0.05001280	          0.05000069	          0.05000165	          0.05000101	          0.05000046	          0.16906371	          0.46552072	          0.05000009	          0.05000053	          0.06179067	          0.05000067	          0.06875037	          0.06937498	          0.06874251	          0.17489444	          0.25658189	          0.18122698	          0.33960308	          0.34031277	          0.32115315	          0.05000005	          0.05000022	          0.05000023	          0.05000024	          0.11657601	          0.05000035	          0.12996152	          0.05000001	          0.05000003	
          0.60655308	         -8.17115385	          4.87014093	         -8.78844725	          0.81792557	          0.88657583	          0.00500603	         33.17826388	          4.47870272	         -2.64347710	         -9.55277585	         -4.25713892	          4.22044828	        -16.36784855	        -24.93346868	          9.93743327	          1.21980221	         -8.90175827	          2.94182423	          0.19162532	         34.84532731	          3.48441430	         -2.20008267	          1.94425141	        -11.96218348	        -13.62268936	         10.52789298	         -2.75946915	        -13.52561879	         19.14147638	          0.13135717	         97.25911727	          0.41169552	          0.47443588	          0.60746979	          0.19887135	          0.23425969	          0.36575017	          0.11666588	          0.08361231	          0.06944218	          0.05000063	          0.05000047	          0.05000101	          0.07395855	          0.19506742	          0.24097310	          0.21278738	          0.05000045	          0.05000460	          0.10423208	          0.35503391	          0.28974163	          0.26891701	          0.05000013	          0.05000014	          0.20665228	          0.06874770	          0.32809429	          0.05000008	          0.17862317	          0.23728014	          0.24380549	          0.05000007	          0.05000020	          0.05000002	          0.11574544	          0.05000638	          0.05000214	          0.90298130	          0.31438312	          0.16741236	          0.50027343	          0.77888894	          0.42222570	          0.13882280	          0.05833110	          0.05000004	          0.16510847	          0.05000021	          0.05000007	          0.21338350	          0.06756879	          0.05000165	          0.05004727	          0.05000022	          0.05000032	          0.05000006	          0.05000055	          0.30360474	          0.42037328	          0.29305856	          0.09444939	          0.08927623	          0.51573705	          0.05001380	          0.05000060	          0.05000215	          0.05000120	          0.05000056	          0.12300788	          0.37309892	          0.05000014	          0.05000047	          0.05000009	          0.05000036	          0.05002212	          0.05047646	          0.05001621	          0.12725006	          0.18668440	          0.13185750	          0.24708914	          0.24760559	          0.23366539	          0.07017992	          0.05000022	          0.05000024	          0.05000021	          0.29778176	          0.05000088	          0.14978278	          0.05000001	          0.05000003	
          0.62901801	         -8.11901909	          4.67786456	         -9.01029447	          0.85163854	          0.88761748	          0.00406065	         32.08138236	          4.82570641	         -1.93522176	         -7.41065204	         -4.48943749	          3.37045322	        -18.41154096	        -31.98348441	          9.52532679	         -0.66900149	         -9.73298593	          4.00935355	          0.14621137	         29.58413408	          3.64974154	         -2.35029919	          1.90570040	        -13.04437741	        -13.56666618	         10.83524483	         -3.43419128	        -13.49360110	         19.32761536	          0.22756261	         98.68475007	          0.45546413	          0.49731626	          0.59579135	          0.18368653	          0.25291585	          0.31851274	          0.08635880	          0.09410687	          0.07595973	          0.05000033	          0.05000032	          0.05000055	          0.05381162	          0.21864702	          0.25936245	          0.21891358	          0.05000036	          0.05000284	          0.09689652	          0.37607276	          0.30538193	          0.26870629	          0.05000008	          0.05000008	          0.15035712	          0.05002028	          0.23871667	          0.05000007	          0.23335779	          0.29904694	          0.28799242	          0.05000009	          0.05000026	          0.05000006	          0.13192062	          0.05000422	          0.05000192	          0.87282141	          0.22873962	          0.12180630	          0.36399019	          0.72178957	          0.34561964	          0.10100500	          0.05000002	          0.05000003	          0.12012998	          0.05000028	          0.05000027	          0.15525414	          0.05000077	          0.05000076	          0.06931694	          0.07227815	          0.07448059	          0.05000029	          0.07060256	          0.28263519	          0.38941583	          0.21322494	          0.06872077	          0.06495592	          0.57374282	          0.31560273	          0.13391384	          0.05000227	          0.05000124	          0.05000054	          0.14525696	          0.30230930	          0.21015722	          0.12014448	          0.06659145	          0.05000002	          0.05000002	          0.05000001	          0.05000001	          0.09258487	          0.13582826	          0.09593715	          0.17977764	          0.18015346	          0.17001081	          0.25729369	          0.23867847	          0.12043707	          0.61964301	          0.51107751	          0.31324233	          0.17266092	          0.05000022	          0.05000009	
